HIERARCHY
ROOT Hips
{
	OFFSET -0.001795 -0.223333 0.028219
	CHANNELS 6 Xposition Yposition Zposition Zrotation Yrotation Xrotation 
	JOINT LeftUpLeg
	{
		OFFSET 0.069520 -0.091406 -0.006815
		CHANNELS 3 Zrotation Yrotation Xrotation
		JOINT LeftLeg
		{
			OFFSET 0.034277 -0.375199 -0.004496
			CHANNELS 3 Zrotation Yrotation Xrotation
			JOINT LeftFoot
			{
				OFFSET -0.013596 -0.397961 -0.043693
				CHANNELS 3 Zrotation Yrotation Xrotation
				JOINT LeftToe
				{
					OFFSET 0.026358 -0.055791 0.119288
					CHANNELS 3 Zrotation Yrotation Xrotation
					End Site
					{
						OFFSET 0.000000 0.000000 0.000000
					}
				}
			}
		}
	}
	JOINT RightUpLeg
	{
		OFFSET -0.067670 -0.090522 -0.004320
		CHANNELS 3 Zrotation Yrotation Xrotation
		JOINT RightLeg
		{
			OFFSET -0.038290 -0.382569 -0.008850
			CHANNELS 3 Zrotation Yrotation Xrotation
			JOINT RightFoot
			{
				OFFSET 0.015774 -0.398415 -0.042312
				CHANNELS 3 Zrotation Yrotation Xrotation
				JOINT RightToe
				{
					OFFSET -0.025372 -0.048144 0.123348
					CHANNELS 3 Zrotation Yrotation Xrotation
					End Site
					{
						OFFSET 0.000000 0.000000 0.000000
					}
				}
			}
		}
	}
	JOINT Spine
	{
		OFFSET -0.002533 0.108963 -0.026696
		CHANNELS 3 Zrotation Yrotation Xrotation
		JOINT Spine1
		{
			OFFSET 0.005487 0.135180 0.001092
			CHANNELS 3 Zrotation Yrotation Xrotation
			JOINT Spine2
			{
				OFFSET 0.001457 0.052922 0.025425
				CHANNELS 3 Zrotation Yrotation Xrotation
				JOINT Neck
				{
					OFFSET -0.002778 0.213870 -0.042857
					CHANNELS 3 Zrotation Yrotation Xrotation
					JOINT Head
					{
						OFFSET 0.005152 0.064970 0.051349
						CHANNELS 3 Zrotation Yrotation Xrotation
						End Site
						{
							OFFSET 0.000000 0.000000 0.000000
						}
					}
				}
				JOINT LeftShoulder
				{
					OFFSET 0.078845 0.121749 -0.034090
					CHANNELS 3 Zrotation Yrotation Xrotation
					JOINT LeftArm
					{
						OFFSET 0.090977 0.030469 -0.008868
						CHANNELS 3 Zrotation Yrotation Xrotation
						JOINT LeftForeArm
						{
							OFFSET 0.259612 -0.012772 -0.027456
							CHANNELS 3 Zrotation Yrotation Xrotation
							JOINT LeftHand
							{
								OFFSET 0.249234 0.008986 -0.001171
								CHANNELS 3 Zrotation Yrotation Xrotation
								End Site
								{
									OFFSET 0.000000 0.000000 0.000000
								}
							}
						}
					}
				}
				JOINT RightShoulder
				{
					OFFSET -0.081759 0.118833 -0.038615
					CHANNELS 3 Zrotation Yrotation Xrotation
					JOINT RightArm
					{
						OFFSET -0.096012 0.032551 -0.009143
						CHANNELS 3 Zrotation Yrotation Xrotation
						JOINT RightForeArm
						{
							OFFSET -0.253742 -0.013329 -0.021401
							CHANNELS 3 Zrotation Yrotation Xrotation
							JOINT RightHand
							{
								OFFSET -0.255298 0.007772 -0.005559
								CHANNELS 3 Zrotation Yrotation Xrotation
								End Site
								{
									OFFSET 0.000000 0.000000 0.000000
								}
							}
						}
					}
				}
			}
		}
	}
}
MOTION
Frames: 13
Frame Time: 0.050000
0.652790 0.933475 -0.148071 -3.093530 10.830454 1.168452 -1.064861 -0.139559 -1.884741 0.143629 -0.331697 6.830903 4.265941 8.417224 -0.414207 0.000000 0.000000 0.000000 2.853995 1.715104 -15.209057 1.077564 -0.132300 21.365702 7.456394 17.174351 2.378962 0.000000 0.000000 0.000000 8.207226 -0.565146 3.399702 1.806862 -1.295334 4.589356 -3.422605 1.696807 3.744582 5.805146 -0.054301 -26.622829 0.000000 0.000000 0.000000 -15.171044 -28.993052 11.275967 -53.579711 -31.699554 8.519882 -17.851413 -69.278718 13.262616 0.000000 0.000000 0.000000 10.257023 22.475948 10.853048 60.596524 44.073819 19.309327 -14.424471 62.685577 -4.297675 0.000000 0.000000 0.000000 
0.658430 0.934370 -0.141831 -2.066199 16.038663 1.538642 -0.517788 -0.335350 -4.069687 -2.087909 -0.240978 10.441985 2.040065 3.943639 -0.265449 0.000000 0.000000 0.000000 4.565411 1.725667 -13.980382 -1.824095 0.525663 18.828987 3.138347 6.840982 2.513775 0.000000 0.000000 0.000000 8.693830 -0.593693 3.021072 1.421761 -1.243189 4.971574 -4.672816 4.198870 1.640436 7.512503 -0.378468 -25.564603 0.000000 0.000000 0.000000 -17.059796 -31.057189 11.029673 -54.903751 -30.827395 8.829881 -19.807604 -67.037581 12.222405 0.000000 0.000000 0.000000 10.226826 19.503036 10.381850 63.793365 47.005148 23.587117 -14.307769 57.395113 -3.044355 0.000000 0.000000 0.000000 
0.661638 0.932629 -0.136839 -0.752479 23.604354 0.144677 1.422330 -0.722314 -8.295317 -6.575435 -0.312902 20.394293 -1.718827 -1.716184 2.418314 0.000000 0.000000 0.000000 3.926740 1.227360 -9.879113 -2.513139 0.420361 16.657052 0.189894 0.339819 0.347282 0.000000 0.000000 0.000000 8.660930 -0.835027 4.846085 2.309677 -1.525350 2.715034 -6.600955 3.559254 3.423689 7.780326 -0.062908 -25.580499 0.000000 0.000000 0.000000 -15.977532 -30.914827 9.822382 -56.340806 -32.592526 9.676393 -23.059543 -65.390204 12.908888 0.000000 0.000000 0.000000 12.518077 20.038623 12.119418 61.109791 51.385822 25.156712 -15.366090 54.281178 -2.986742 0.000000 0.000000 0.000000 
0.663555 0.928297 -0.133406 -0.442022 27.501254 -0.513044 3.545158 -1.367679 -14.683834 -8.375294 -1.163930 30.473282 -10.073467 -10.046729 11.933886 0.000000 0.000000 0.000000 3.753195 1.104982 -8.817624 -2.324706 0.145628 17.332660 -1.185491 -3.196226 -1.325006 0.000000 0.000000 0.000000 8.261678 -0.887892 5.413034 1.584413 -1.220560 2.824718 -5.903185 5.140754 3.717491 6.917967 0.805372 -25.826475 0.000000 0.000000 0.000000 -13.910248 -31.095784 8.997990 -58.526511 -33.700695 10.166870 -26.858562 -65.718574 14.326116 0.000000 0.000000 0.000000 10.964867 20.135224 12.312365 60.605787 53.049795 26.603707 -16.069475 53.039053 -3.009101 0.000000 0.000000 0.000000 
0.666935 0.924983 -0.129566 -0.815225 31.158947 -0.931794 5.691400 -1.890413 -19.198155 -4.222781 -3.171341 32.435284 -19.200633 -21.047573 18.435552 0.000000 0.000000 0.000000 2.997457 1.062239 -9.368229 -0.250222 -0.972389 19.736937 -2.199055 -6.050801 -1.736247 0.000000 0.000000 0.000000 8.104675 -0.886393 5.414302 0.553758 -0.952163 3.941727 -4.304781 6.948280 3.241032 7.738874 0.713751 -25.580538 0.000000 0.000000 0.000000 -15.661533 -32.084671 8.647938 -57.174054 -31.800444 9.243045 -35.251876 -65.505273 18.751053 0.000000 0.000000 0.000000 10.250409 17.953780 11.447950 61.014354 51.090694 25.999214 -11.593958 55.680799 -0.495055 0.000000 0.000000 0.000000 
0.674136 0.923316 -0.124382 -0.767112 34.573668 -1.358207 7.152412 -2.347129 -22.318951 2.875612 -4.917786 28.366062 -24.790668 -24.003760 25.188935 0.000000 0.000000 0.000000 1.758174 0.842944 -8.468742 1.711663 -2.027969 20.300206 -3.053246 -8.570346 -1.902808 0.000000 0.000000 0.000000 7.961268 -0.929620 5.713320 1.702608 -1.290133 2.318506 -5.249320 5.246074 4.620548 8.256330 0.442148 -24.677318 0.000000 0.000000 0.000000 -15.809019 -29.048378 6.819677 -57.459611 -28.459693 7.597854 -41.824334 -65.158104 22.365791 0.000000 0.000000 0.000000 10.537207 20.626988 13.143793 58.751844 50.485775 24.038854 -8.194397 55.855734 1.245146 0.000000 0.000000 0.000000 
0.685707 0.922606 -0.119437 -0.260715 34.211595 -1.033874 9.559394 -2.047953 -21.638533 6.906995 -4.465697 22.009338 -12.156857 -6.785982 18.665486 0.000000 0.000000 0.000000 0.741840 0.704403 -7.968279 1.772577 -2.049993 20.591639 -2.868865 -8.146544 -2.413652 0.000000 0.000000 0.000000 7.015529 -0.727606 4.926998 -1.185444 -0.147279 3.949476 -2.319180 9.610478 2.261966 5.188901 2.154455 -24.176452 0.000000 0.000000 0.000000 -17.253883 -30.961962 6.759926 -56.654366 -23.876942 6.007107 -54.850343 -64.075751 28.880481 0.000000 0.000000 0.000000 11.378844 15.860057 11.435547 58.268621 45.076515 20.493190 0.630338 60.156275 7.164132 0.000000 0.000000 0.000000 
0.701768 0.921045 -0.115326 -1.919355 35.572825 -2.950142 10.962002 -1.629212 -17.976465 11.285699 -4.261208 16.172047 -7.748541 1.577787 19.449439 0.000000 0.000000 0.000000 2.189032 0.654432 -5.464973 0.959402 -1.751093 19.710291 -3.327826 -9.718671 -2.430952 0.000000 0.000000 0.000000 8.247250 -0.956499 5.820523 0.312425 -0.287486 0.419603 -4.066034 6.879102 6.692211 7.151506 1.413172 -25.278974 0.000000 0.000000 0.000000 -15.934085 -26.134255 4.633681 -57.275072 -22.712682 4.770369 -57.869106 -62.307340 29.927407 0.000000 0.000000 0.000000 11.091710 18.859259 12.849441 58.432907 43.715085 19.254685 -0.659466 62.289120 6.826718 0.000000 0.000000 0.000000 
0.721738 0.918670 -0.113103 -1.227033 35.342463 -2.209668 10.954497 -1.455252 -15.895371 9.057622 -3.074934 13.835147 -0.894958 11.123586 20.350056 0.000000 0.000000 0.000000 0.841324 0.535922 -5.531951 0.284800 -1.640870 20.811009 -3.205299 -9.492236 -3.073640 0.000000 0.000000 0.000000 7.586855 -0.760950 4.866202 -1.449185 0.553455 0.123082 -2.909061 8.912942 6.164824 7.563653 1.225311 -24.261605 0.000000 0.000000 0.000000 -17.842196 -27.872787 4.645036 -54.439747 -19.593757 3.936830 -59.716897 -61.681402 30.145208 0.000000 0.000000 0.000000 13.268552 15.809815 12.470793 55.772791 40.367710 15.587625 9.755753 65.396599 14.806899 0.000000 0.000000 0.000000 
0.744964 0.915697 -0.112868 -1.694911 34.756264 -1.690843 11.191750 -1.315215 -13.816701 7.773491 -2.156957 10.830967 0.440409 11.419510 17.182178 0.000000 0.000000 0.000000 0.155179 0.431851 -4.942435 -0.097595 -1.309581 19.812134 -3.012320 -9.134900 -3.798049 0.000000 0.000000 0.000000 8.219179 -0.611459 3.144189 -1.593905 0.637694 -0.062249 -3.321455 9.626300 6.145848 7.711200 0.782620 -21.931997 0.000000 0.000000 0.000000 -17.264504 -27.820511 4.572688 -54.517687 -18.841204 3.502152 -60.634714 -62.037569 30.744477 0.000000 0.000000 0.000000 14.849493 15.465893 13.129485 54.189379 37.875721 13.088101 13.100819 68.304849 18.416920 0.000000 0.000000 0.000000 
0.768770 0.913476 -0.114184 -1.665724 33.167087 -0.979944 10.590867 -1.203191 -12.647979 6.784532 -1.812960 9.995872 2.341883 12.581394 14.507564 0.000000 0.000000 0.000000 -0.639105 0.385604 -5.155102 -1.565006 -0.699650 19.992955 -2.639337 -7.924791 -3.902572 0.000000 0.000000 0.000000 8.044126 -0.503066 2.315351 -2.093613 0.919217 -0.534407 -2.841911 9.137868 6.369254 7.674466 0.766124 -22.497714 0.000000 0.000000 0.000000 -17.231209 -26.717320 4.404346 -53.905194 -18.628103 3.321036 -60.908100 -63.027829 32.093636 0.000000 0.000000 0.000000 16.985826 14.777648 13.386099 51.218104 36.569048 10.677667 18.329492 72.261029 24.054062 0.000000 0.000000 0.000000 
0.790817 0.912391 -0.116140 -1.641166 31.425590 -0.144187 10.090693 -1.127798 -12.117818 5.546359 -1.556876 9.815466 4.221530 14.074657 12.400579 0.000000 0.000000 0.000000 -1.785209 0.307811 -5.352097 -2.374624 -0.242127 19.454906 -2.193570 -6.404052 -3.520384 0.000000 0.000000 0.000000 7.926736 -0.399905 1.405487 -2.231743 1.023822 -0.895450 -2.803166 8.843981 6.470328 7.490815 0.609191 -21.945048 0.000000 0.000000 0.000000 -16.612672 -26.369758 4.723144 -52.633730 -20.417843 3.870318 -57.866322 -64.919107 31.908588 0.000000 0.000000 0.000000 18.229657 14.121750 13.257702 49.395680 36.064644 9.479436 22.862536 76.918320 30.141112 0.000000 0.000000 0.000000 
0.811246 0.913033 -0.118090 -2.049791 29.752977 -0.012106 9.717734 -1.047092 -11.473937 4.762907 -1.456118 10.073796 5.793787 15.531712 10.920971 0.000000 0.000000 0.000000 -2.411165 0.238241 -4.852899 -3.186262 0.218864 18.307553 -1.744767 -4.911463 -2.276486 0.000000 0.000000 0.000000 7.716372 -0.323615 0.851179 -2.478384 1.051711 -0.051231 -2.805660 8.625301 5.838579 7.505425 0.323783 -21.347463 0.000000 0.000000 0.000000 -15.001407 -26.121326 5.238243 -51.648569 -23.963504 4.973683 -49.398370 -66.681405 27.772482 0.000000 0.000000 0.000000 18.978792 14.439575 13.370127 46.885391 36.465609 8.794866 16.971102 80.622594 26.650932 0.000000 0.000000 0.000000 
